<?xml version="1.0" standalone="no"?>
<!DOCTYPE svg PUBLIC "-//W3C//DTD SVG 20010904//EN"
 "http://www.w3.org/TR/2001/REC-SVG-20010904/DTD/svg10.dtd">
<svg version="1.0" xmlns="http://www.w3.org/2000/svg"
 width="666.000000pt" height="375.000000pt" viewBox="0 0 666.000000 375.000000"
 preserveAspectRatio="xMidYMid meet">

<g transform="translate(0.000000,375.000000) scale(0.100000,-0.100000)"
fill="#000000" stroke="none">
<path d="M3250 3191 c-37 -12 -80 -35 -240 -131 -80 -48 -262 -156 -405 -240
-291 -171 -353 -221 -385 -308 -19 -50 -20 -79 -20 -615 l0 -562 29 -60 c16
-33 44 -74 62 -92 56 -52 877 -541 952 -567 61 -21 119 -20 182 2 28 10 147
75 265 146 118 71 313 187 432 258 119 71 233 146 253 166 21 20 49 62 64 92
l26 55 0 565 0 565 -23 49 c-33 71 -64 109 -124 148 -140 92 -868 517 -903
527 -45 12 -127 13 -165 2z m135 -54 c44 -11 779 -438 913 -529 46 -32 87 -86
98 -132 l7 -29 -31 23 c-41 31 -79 22 -178 -39 -702 -431 -770 -474 -822 -524
-72 -70 -72 -72 -72 -631 0 -512 3 -550 43 -595 l22 -23 -57 4 c-63 5 -46 -4
-639 349 -312 186 -356 218 -396 292 -17 30 -18 75 -18 597 0 564 0 565 22
606 37 69 72 96 325 247 134 79 329 195 433 257 163 97 244 136 290 139 6 1
33 -5 60 -12z m285 -1406 l0 -39 46 6 46 5 -7 -34 c-12 -55 -23 -69 -56 -69
-44 0 -84 -25 -99 -61 -19 -44 -4 -63 57 -70 27 -4 60 -12 72 -18 23 -13 51
-66 51 -99 0 -43 -34 -126 -66 -161 -27 -31 -34 -47 -34 -80 0 -36 -4 -44 -32
-61 l-33 -20 -3 38 -3 39 -50 -5 c-54 -5 -56 -3 -39 60 9 32 14 36 43 35 73
-2 127 46 127 112 0 35 -26 51 -80 51 -44 0 -77 19 -91 52 -23 57 9 165 65
217 20 19 26 34 26 67 0 33 5 46 22 58 33 23 38 20 38 -23z m430 -444 c0 -31
-5 -37 -72 -75 -40 -23 -88 -52 -105 -63 l-33 -21 0 34 c0 30 6 37 58 68 31
19 67 40 79 47 13 6 33 19 45 27 29 21 28 21 28 -17z"/>
</g>
</svg>
