<?xml version="1.0" standalone="no"?>
<!DOCTYPE svg PUBLIC "-//W3C//DTD SVG 20010904//EN"
 "http://www.w3.org/TR/2001/REC-SVG-20010904/DTD/svg10.dtd">
<svg version="1.0" xmlns="http://www.w3.org/2000/svg"
 width="360.000000pt" height="360.000000pt" viewBox="0 0 360.000000 360.000000"
 preserveAspectRatio="xMidYMid meet">

<g transform="translate(0.000000,360.000000) scale(0.100000,-0.100000)"
fill="#000000" stroke="none">
<path d="M1675 3402 c-27 -10 -153 -79 -280 -154 -126 -74 -367 -216 -534
-314 -175 -104 -326 -200 -358 -228 -59 -53 -96 -117 -113 -192 -7 -31 -11
-278 -10 -721 0 -622 2 -677 19 -731 33 -107 92 -173 231 -260 303 -188 997
-590 1050 -609 132 -46 224 -25 420 96 69 43 260 158 425 256 165 98 350 208
410 244 185 110 252 191 275 331 13 83 13 1273 0 1353 -5 32 -21 84 -35 115
-45 98 -100 143 -340 284 -60 35 -195 115 -300 178 -454 270 -573 339 -618
354 -63 21 -178 20 -242 -2z m215 -62 c41 -11 68 -26 660 -378 257 -153 474
-288 498 -311 36 -35 98 -138 88 -148 -2 -2 -16 3 -32 12 -52 27 -102 19 -184
-28 -242 -140 -1012 -623 -1051 -659 -25 -24 -58 -70 -75 -103 l-29 -60 -3
-630 c-3 -671 -2 -692 45 -754 l26 -33 -70 4 c-68 3 -72 5 -279 127 -786 464
-915 544 -958 592 -83 93 -80 61 -84 784 -3 695 -1 736 48 823 42 72 84 103
354 262 131 78 365 217 520 309 155 92 299 175 321 184 45 18 152 22 205 7z
m332 -1722 c1 -13 4 -40 7 -65 1 -7 19 -11 49 -10 46 2 47 2 50 -31 5 -48 -21
-82 -61 -82 -61 0 -125 -48 -142 -107 -9 -34 25 -60 96 -74 113 -22 154 -83
129 -191 -16 -66 -32 -99 -81 -161 -33 -41 -39 -56 -39 -97 0 -39 -4 -52 -22
-64 -38 -27 -56 -21 -60 22 l-3 37 -55 0 -55 0 -3 47 c-3 39 1 49 20 62 12 9
38 16 56 16 78 0 142 59 142 131 0 45 -13 56 -78 69 -106 20 -147 57 -147 134
0 61 42 160 86 202 22 21 29 37 30 68 1 54 10 75 40 92 30 17 39 17 41 2z
m540 -583 c-6 -44 -10 -51 -43 -69 -19 -11 -72 -44 -118 -74 -79 -51 -85 -53
-98 -36 -28 38 -20 47 127 138 108 66 137 75 132 41z"/>
</g>
</svg>
