<?xml version="1.0" standalone="no"?>
<!DOCTYPE svg PUBLIC "-//W3C//DTD SVG 20010904//EN"
 "http://www.w3.org/TR/2001/REC-SVG-20010904/DTD/svg10.dtd">
<svg version="1.0" xmlns="http://www.w3.org/2000/svg"
 width="512.000000pt" height="512.000000pt" viewBox="0 0 512.000000 512.000000"
 preserveAspectRatio="xMidYMid meet">

<g transform="translate(0.000000,512.000000) scale(0.100000,-0.100000)"
fill="#000000" stroke="none">
<path d="M1286 4335 c-28 -75 20 -166 177 -332 180 -192 242 -284 295 -438 54
-160 77 -407 49 -550 -60 -316 -264 -580 -878 -1137 l-74 -68 205 105 c113 57
259 134 325 170 494 271 934 444 1570 615 521 140 941 222 1533 299 41 5 77
12 80 15 12 13 -97 155 -188 246 -157 156 -352 293 -585 408 -334 166 -591
233 -1280 336 -744 112 -924 147 -1045 204 -30 14 -83 52 -116 84 -49 47 -63
55 -68 43z m653 -347 c182 -31 192 -33 170 -48 -54 -35 -183 -135 -233 -181
-30 -27 -56 -49 -60 -49 -3 0 -15 19 -27 43 -38 73 -99 157 -170 232 -38 40
-69 75 -69 77 0 3 44 -5 98 -18 53 -13 184 -39 291 -56z m395 -231 c20 -97 22
-207 3 -207 -8 0 -40 9 -73 21 -32 11 -120 36 -194 55 -74 19 -136 36 -138 38
-7 8 139 124 238 188 l104 68 22 -43 c12 -24 29 -77 38 -120z m346 117 c240
-38 228 -28 110 -90 -56 -30 -154 -87 -218 -128 l-117 -73 -7 96 c-3 53 -15
125 -27 161 -11 36 -21 68 -21 71 0 6 48 0 280 -37z m540 -104 c150 -37 362
-110 410 -140 20 -12 17 -13 -85 -40 -113 -28 -359 -110 -489 -162 -54 -21
-100 -37 -103 -35 -2 3 14 45 36 95 32 73 75 192 107 300 2 7 12 11 21 8 10
-3 56 -15 103 -26z m-251 -45 c-16 -57 -74 -196 -123 -293 l-46 -91 -35 20
c-19 11 -86 44 -150 74 l-115 53 78 50 c138 88 373 221 394 222 3 0 2 -16 -3
-35z m-959 -190 c58 -14 142 -37 188 -51 l83 -25 -73 -56 c-40 -31 -120 -97
-178 -147 l-105 -89 -7 101 c-6 89 -30 241 -45 279 -7 19 17 17 137 -12z
m1710 -13 c0 -13 -90 -161 -143 -236 -60 -86 -142 -189 -216 -273 l-54 -62
-96 92 c-53 50 -136 119 -183 152 -48 33 -86 64 -85 69 6 21 405 166 637 230
141 39 140 39 140 28z m300 -105 c108 -72 214 -160 298 -247 l74 -75 -39 -7
c-21 -4 -117 -19 -213 -33 -189 -29 -431 -72 -602 -108 -60 -13 -108 -22 -108
-20 0 2 31 41 68 86 139 167 241 315 306 444 l36 72 52 -30 c29 -17 87 -54
128 -82z m-1503 -51 c43 -18 102 -45 132 -60 l54 -28 -154 -80 c-85 -44 -169
-89 -187 -100 -18 -11 -35 -18 -38 -16 -2 3 9 34 25 69 29 65 51 130 71 207 6
23 12 42 14 42 3 0 40 -15 83 -34z m-233 -98 c-23 -64 -107 -239 -132 -276 -7
-10 -29 -3 -97 30 l-88 42 44 39 c73 66 283 237 291 237 4 0 -4 -33 -18 -72z
m838 -287 c54 -51 98 -97 98 -101 0 -4 -15 -11 -34 -14 -81 -15 -621 -166
-691 -192 -9 -4 17 38 58 92 77 102 213 304 261 386 l28 48 91 -63 c50 -34
135 -104 189 -156z m-469 112 c-67 -106 -268 -383 -278 -383 -2 0 -14 24 -28
53 -13 28 -43 73 -66 99 l-41 47 132 74 c183 103 302 167 310 167 4 0 -9 -26
-29 -57z m-674 -149 c34 -15 61 -29 61 -33 -1 -7 -184 -131 -188 -127 -1 2 9
37 23 79 14 42 25 83 25 91 0 21 9 20 79 -10z m223 -151 c34 -37 66 -102 74
-150 l6 -40 -118 -43 c-65 -23 -164 -62 -221 -86 l-103 -43 96 107 c53 59 126
146 162 194 37 49 70 88 73 88 3 0 17 -12 31 -27z m-308 -148 c-74 -85 -232
-235 -315 -300 -51 -40 -59 -44 -39 -19 14 17 60 75 104 128 43 54 104 117
135 141 82 64 165 122 170 119 2 -2 -23 -33 -55 -69z"/>
</g>
</svg>
